<?xml version="1.0" encoding="UTF-8"?>
<svg version="1.1" viewBox="0 0 2048 2048" width="1280" height="1280" xmlns="http://www.w3.org/2000/svg">
<path transform="translate(659,179)" d="m0 0 4 2 26 168 19 123 6 38 5 19 4 10 9 16 9 10 9 9 19 12 17 6 9 2 9 1h19l19-4 16-7 14-8 15-10 41-27 15-10 35-23 33-22 11-7 5 1 33 22 16 10 10 7 17 11 27 18 17 11 32 21 10 6 17 7 12 3 9 1h18l17-3 16-6 17-10 10-9 9-9 12-20 6-20 4-21 18-116 11-72 13-84 7-45 4-1 28 7 13 5 25 12 14 10 13 10 16 16 9 11 10 15 11 20 11 24 11 25 16 36 19 43 44 99 15 34 48 108 19 43 108 243 15 34 48 108 15 34 16 36 11 25 6 16 1 5v10l-3 15-8 15-7 8-14 9-44 22-19 10-42 21-15 5-4 1h-13l-12-3-12-6-10-9-7-10-12-23-27-54-10-19-52-104-10-19-49-98-10-19-50-100-10-19-57-114-2-1 4 27 11 78 13 93 22 158 19 135 31 221 27 192 19 136 22 155 8 59v18l-3 12-5 12-9 13-7 7-14 9-18 7h-479l-1-457-3-10-6-11-4-4v-2l-4-2-9-6-9-4-5-1h-17l-10 3-11 7-5 4-9 13-3 7-1 5-1 21-1 437h-496v-2l-6-1-10-5-8-6v-2h-2l-8-11-5-10-2-7v-20l12-85 16-114 15-107 14-98 15-107 19-135 14-98 15-107 20-142 17-119 14-101 8-55-1-1-23 45-62 124-9 17-50 100-10 19-59 118-9 17-9 19-10 19-28 56-9 17-8 16-6 10-8 9-10 7-11 4-8 2h-13l-15-4-104-52-12-7-10-8-7-10-5-10-3-13v-12l4-14 13-30 92-207 11-25 80-180 18-41 13-29 15-34 80-180 18-41 18-40 18-41 13-29 11-24 13-23 9-13 15-16 6-7 20-15 14-9 26-12 22-6zm355 460-13 4-10 6-7 6-8 11-5 13-1 5v18l3 11 5 10 9 10 9 7 8 4 12 3h16l14-4 12-7 10-10 8-16 2-8v-18l-4-13-6-11-8-9-11-7-11-4-4-1zm417 74 1 3v-3zm-413 146-10 2-12 5-9 7-8 9-7 14-2 8v19l3 11 6 11 9 10 9 6 8 4 16 3 14-1 12-4 10-6 8-7 7-10 4-9 2-8v-18l-3-12-6-11-11-12-12-7-15-4zm-4 221-13 4-11 7-6 5-7 10-5 11-2 8v19l4 13 7 11 6 7 10 7 12 5 6 1h19l12-4 11-6 11-11 7-12 3-12v-18l-4-13-6-11-11-11-10-6-14-4zm6 220-12 2-9 4-11 7-8 9-6 10-4 13v20l3 10 5 10 9 10 9 7 12 5 10 2h14l16-5 11-7 7-7 7-11 4-10 1-5v-18l-4-14-6-10-9-10-14-8-10-3z"/>
<path transform="translate(958)" d="m0 0h135v1l62 8 25 4 21 7 16 8 13 8 14 12 12 12 12 17 8 15 6 17 4 15 2 15v20l-2 20-28 182-14 90-4 12-6 8-7 5-11 3-9-2-12-6-42-28-16-10-30-20-79-52-4-2-12 7-10 7-11 7-33 22-25 16-30 20-29 19-15 10-13 8-11 4-14-3-9-7-5-8-4-16-19-122-22-143-2-17v-27l4-22 7-20 10-19 10-13 8-10 11-10 12-9 15-9 23-9 19-4 51-7 28-3zm25 163-40 2-33 3-9 3-5 6-1 3v8l6 10 13 15 9 10 9 11 12 14 13 15 24 28 13 15 24 28 4 5 5-1 9-11 9-10 9-11 26-30 9-11 10-11 9-11 2-4h2l5-6v-2h2l9-11 13-15 9-11 3-7v-7l-4-7-7-4-15-2-39-3-21-1z"/>
</svg>
