<?xml version="1.0" standalone="no"?>
<!DOCTYPE svg PUBLIC "-//W3C//DTD SVG 20010904//EN"
 "http://www.w3.org/TR/2001/REC-SVG-20010904/DTD/svg10.dtd">
<svg version="1.0" xmlns="http://www.w3.org/2000/svg"
 width="1280.000000pt" height="1111.000000pt" viewBox="0 0 1280.000000 1111.000000"
 preserveAspectRatio="xMidYMid meet">
<metadata>
Created by potrace 1.15, written by Peter Selinger 2001-2017
</metadata>
<g transform="translate(0.000000,1111.000000) scale(0.100000,-0.100000)"
fill="#000000" stroke="none">
<path d="M4735 11044 c-156 -59 -197 -70 -490 -129 -944 -188 -1639 -360
-2315 -570 -181 -57 -307 -99 -568 -192 l-72 -26 -108 -171 c-362 -573 -596
-1031 -715 -1401 -50 -155 -61 -196 -107 -405 -69 -314 -148 -596 -171 -610
-5 -3 -49 -89 -98 -190 -76 -158 -87 -187 -74 -197 27 -21 585 -299 753 -376
564 -256 1144 -461 1670 -592 80 -20 153 -38 162 -41 14 -4 33 27 97 155 52
102 76 161 68 164 -7 2 3 20 25 46 20 24 55 78 78 120 34 62 40 70 35 41 -81
-478 -117 -765 -150 -1195 -32 -428 -37 -632 -45 -1900 -10 -1460 -17 -1690
-70 -2175 -32 -294 -82 -590 -136 -803 -13 -54 -22 -102 -19 -107 7 -11 310
-109 480 -154 623 -168 1300 -270 2090 -316 246 -15 866 -15 1114 0 166 10
236 10 385 -1 229 -18 1000 -18 1256 -1 732 50 1331 139 1915 288 220 55 585
169 585 182 0 4 -16 75 -35 157 -79 338 -136 765 -165 1245 -17 277 -32 1205
-26 1550 8 399 -8 1393 -29 1745 -33 569 -82 999 -171 1490 -3 20 8 6 35 -44
22 -41 60 -100 85 -132 30 -39 41 -59 31 -59 -8 0 -15 -2 -15 -5 0 -6 150
-308 156 -314 6 -7 207 43 429 106 483 136 1009 333 1494 557 136 63 688 340
698 350 5 5 -176 374 -187 381 -17 11 -97 276 -140 465 -78 343 -90 395 -122
500 -116 391 -349 854 -746 1485 -52 83 -96 152 -97 153 -5 6 -121 48 -325
117 -603 207 -1272 387 -2115 569 -410 88 -875 178 -890 172 -7 -2 -80 24
-162 59 l-148 63 -35 -51 c-90 -130 -258 -357 -337 -455 -113 -140 -315 -340
-428 -425 -119 -90 -300 -179 -418 -207 -239 -57 -500 -7 -750 142 -281 169
-577 460 -888 875 -55 73 -100 133 -102 133 -1 -1 -78 -30 -172 -66z"/>
</g>
</svg>
