<?xml version="1.0" standalone="no"?>
<!DOCTYPE svg PUBLIC "-//W3C//DTD SVG 20010904//EN"
 "http://www.w3.org/TR/2001/REC-SVG-20010904/DTD/svg10.dtd">
<svg version="1.0" xmlns="http://www.w3.org/2000/svg"
 width="224.000000pt" height="224.000000pt" viewBox="0 0 224.000000 224.000000"
 preserveAspectRatio="xMidYMid meet">

<g transform="translate(0.000000,224.000000) scale(0.100000,-0.100000)"
fill="#000000" stroke="none">
<path d="M2051 2058 c-386 -378 -781 -779 -875 -888 -110 -128 -268 -336 -342
-450 l-48 -74 -257 264 -258 264 -23 -19 c-12 -11 -70 -62 -128 -114 -58 -52
-109 -97 -114 -102 -4 -4 65 -83 156 -176 209 -214 379 -392 542 -566 71 -75
132 -137 135 -137 4 0 21 24 39 54 44 74 179 261 260 360 239 293 628 647 994
905 l108 76 0 387 c0 214 -3 388 -6 388 -4 0 -86 -78 -183 -172z"/>
</g>
</svg>
