<?xml version="1.0" standalone="no"?>
<!DOCTYPE svg PUBLIC "-//W3C//DTD SVG 20010904//EN"
 "http://www.w3.org/TR/2001/REC-SVG-20010904/DTD/svg10.dtd">
<svg version="1.0" xmlns="http://www.w3.org/2000/svg"
 width="242.000000pt" height="209.000000pt" viewBox="0 0 242.000000 209.000000"
 preserveAspectRatio="xMidYMid meet">

<g transform="translate(0.000000,209.000000) scale(0.100000,-0.100000)"
fill="#000000" stroke="none">
<path d="M1075 1744 c-11 -3 -55 -17 -97 -30 -212 -69 -394 -267 -455 -494
-24 -88 -24 -262 0 -350 61 -229 239 -421 460 -497 75 -26 94 -28 227 -28 126
0 154 3 215 24 118 40 193 88 286 181 95 95 153 195 186 320 23 88 23 262 0
350 -60 225 -237 419 -454 495 -67 24 -96 28 -213 31 -74 1 -144 1 -155 -2z
m284 -89 c195 -46 374 -208 441 -399 104 -294 -23 -622 -297 -764 -99 -51
-182 -72 -293 -72 -110 0 -194 21 -291 71 -143 74 -255 207 -306 363 -37 116
-37 266 0 382 67 203 244 370 444 418 77 19 223 19 302 1z"/>
<path d="M1170 1255 l0 -165 -164 0 c-153 0 -165 -1 -171 -19 -3 -11 -3 -31 1
-45 l6 -26 164 0 164 0 0 -165 0 -165 40 0 40 0 0 165 0 165 164 0 164 0 6 26
c4 14 4 34 1 45 -6 18 -18 19 -171 19 l-164 0 0 165 0 165 -40 0 -40 0 0 -165z"/>
</g>
</svg>
