<?xml version="1.0" standalone="no"?>
<!DOCTYPE svg PUBLIC "-//W3C//DTD SVG 20010904//EN"
 "http://www.w3.org/TR/2001/REC-SVG-20010904/DTD/svg10.dtd">
<svg version="1.0" xmlns="http://www.w3.org/2000/svg"
 width="671.000000pt" height="1280.000000pt" viewBox="0 0 671.000000 1280.000000"
 preserveAspectRatio="xMidYMid meet">
<g transform="translate(0.000000,1280.000000) scale(0.100000,-0.100000)"
fill="#000000" stroke="none">
<path d="M718 12313 c-392 -777 -515 -1068 -592 -1415 -63 -280 -80 -628 -52
-1032 34 -476 67 -684 221 -1351 199 -862 239 -1082 266 -1460 12 -169 7 -628
-11 -940 -30 -534 -32 -893 -26 -3385 l7 -2515 32 -33 c49 -51 140 -108 209
-131 104 -34 218 -53 283 -48 467 37 984 335 1136 654 40 85 47 162 25 303
-41 271 -64 524 -101 1120 -26 412 -39 541 -119 1170 -47 369 -77 651 -98 925
-17 211 -17 1111 0 1440 7 138 21 453 32 700 23 529 30 675 70 1549 55 1195
90 1688 125 1755 l12 24 17 -25 c10 -15 333 -831 720 -1815 594 -1511 712
-1803 760 -1882 204 -335 407 -784 563 -1246 98 -290 168 -529 308 -1055 169
-630 190 -729 325 -1520 127 -738 203 -1056 336 -1393 55 -142 172 -381 202
-416 17 -19 19 -19 180 -1 574 66 830 152 1026 347 76 75 141 170 128 186 -11
14 -129 431 -356 1257 -558 2035 -824 2878 -1129 3570 -117 268 -209 545 -292
885 -106 437 -155 754 -260 1695 -100 898 -123 1032 -354 2071 -161 724 -284
1202 -473 1832 -36 123 -24 113 -173 153 -169 45 -352 62 -900 84 -429 18
-544 43 -1052 234 -243 91 -432 149 -533 165 -41 7 -91 17 -111 22 -20 5 -52
9 -70 9 l-34 0 -247 -487z"/>
</g>
</svg>
