<?xml version="1.0" encoding="UTF-8"?>
<svg version="1.1" viewBox="0 0 900 900" width="1280" height="1280" xmlns="http://www.w3.org/2000/svg">
<path transform="translate(0)" d="m0 0h900v900h-900z" fill="#FEFEFE"/>
<path transform="translate(0)" d="m0 0h900v900h-900zm448 38-22 13-21 12-24 14-23 13-24 14-26 15-21 12-24 14-104 60-24 14-28 16-13 8-1 1v412l13 8 18 10 97 56 24 14 28 16 71 41 24 14 78 45 5 2 17-10 24-14 21-12 24-14 21-12 45-26 21-12 81-47 26-15 28-16 24-14 21-12 3-3v-411l-22-13-26-15-24-14-28-16-24-14-52-30-21-12-24-14-28-16-24-14-52-30-24-14-7-4z" fill="#FEFEFE"/>
<path transform="translate(448,38)" d="m0 0 5 1 24 14 26 15 24 14 28 16 52 30 24 14 28 16 24 14 21 12 26 15 24 14 52 30 1 4v408l-8 6-25 14-17 10-28 16-26 15-24 14-21 12-19 11-29 17-18 10-17 10-21 12-24 14-43 25-21 12-15 9-5-2-28-16-24-14-28-16-26-15-24-14-52-30-28-16-24-14-52-30-21-12-24-14-21-12-1-1v-412l9-6 26-15 28-16 26-15 24-14 78-45 24-14 23-13 24-14 26-15 21-12 17-10 26-15zm-1 33-15 9-26 15-28 16-24 14-21 12-24 14-28 16-24 14-78 45-24 14-26 15-8 5v379l8 6 23 13 17 10 182 105 21 12 26 15 24 14 21 12 6 3 6-2 28-16 24-14 78-45 21-12 24-14 71-41 24-14 26-15 23-13 5-5v-377l-8-6-16-9-24-14-52-30-28-16-17-10-182-105z" fill="#010101"/>
<path transform="translate(447,71)" d="m0 0 7 1 182 105 24 14 21 12 52 30 24 14 16 9 6 5v377l-5 5-25 14-45 26-17 10-28 16-24 14-26 15-24 14-21 12-24 14-25 14-17 10-24 14-21 12-4 1-12-6-27-16-49-28-24-14-28-16-17-10-28-16-26-15-24-14-21-12-26-15-24-14-17-10-5-4v-379l17-10 26-15 27-16 23-13 24-14 28-16 24-14 52-30 24-14 28-16 52-30zm1 29-8 5-26 15-21 12-17 10-28 16-22 13-23 13-24 14-21 12-24 14-28 16-24 14-26 15-9 5v351l8 5 25 14 17 10 26 15 24 14 28 16 24 14 26 15 28 16 48 28 28 16 13 8 7 4 5-2 24-14 78-45 24-14 28-16 24-14 26-15 28-16 19-11 26-15 16-9 5-3 1-2v-349l-8-5-21-12-26-15-24-14-21-12-26-15-24-14-28-16-24-14-28-16-24-14-26-15-14-8-8-5z" fill="#FEFEFE"/>
<path transform="translate(448,100)" d="m0 0 4 1 25 14 22 13 28 16 24 14 52 30 21 12 24 14 21 12 24 14 26 15 28 16 6 4v349l-4 4-15 8-24 14-21 12-24 14-23 13-24 14-26 15-21 12-24 14-62 36-23 13-11 7-5-2-24-14-23-13-29-17-26-15-28-16-24-14-130-75-15-9v-351l18-10 24-14 26-15 28-16 27-16 18-10 24-14 23-13 15-9 26-15 14-8 24-14 28-16zm0 32-10 7-20 11-17 10-28 16-26 15-24 14-71 41-24 14-28 16-19 11-5 3-1 2v316l5 4 24 14 21 12 24 14 182 105 14 8 3 2 5-1 24-14 16-9 24-14 21-12 24-14 28-16 24-14 26-15 24-14 25-14 17-10 13-8 5-3 1-6v-308l-1-5-49-28-15-9-23-13-24-14-52-30-24-14-23-13-24-14-21-12-19-11z" fill="#010101"/>
<path transform="translate(677,333)" d="m0 0h2l-1 248-17 10-28 16-26 15-24 14-26 15-28 16-43 25-22 13-5 2v-241l1-7 13-8 24-14 78-45 24-14 28-16 24-14 21-12z" fill="#010101"/>
<path transform="translate(448,186)" d="m0 0 6 1 26 15 24 14 26 15 28 16 24 14 52 30 24 14 4 3-13 8-21 12-17 10-71 41-24 14-52 30-18 11-5-2-28-16-24-14-28-16-24-14-52-30-43-25-9-6 3-3 12-6 17-10 24-14 23-13 24-14 28-16 17-10 21-12 43-25z" fill="#010101"/>
<path transform="translate(222,339)" d="m0 0 8 4 22 13 26 15 24 14 52 30 24 14 26 15 25 15 1 1v240l-5-2-17-10-28-16-19-11-24-14-25-14-17-10-26-15-24-14-18-10-5-5z" fill="#010101"/>
</svg>
